<svg width="24" height="22" viewBox="0 0 24 22" fill="none" xmlns="http://www.w3.org/2000/svg">
<g clip-path="url(#clip0_299_288)">
<path d="M17.1453 5.19668C17.1453 8.02774 14.8188 10.325 11.9496 10.325C9.07849 10.325 6.75205 8.02953 6.75205 5.19668C6.75205 2.36383 9.07849 0.0683594 11.9496 0.0683594C14.8188 0.0683594 17.1453 2.36383 17.1453 5.19668ZM5.19749 11.6062C2.32823 11.6062 0 13.9017 0 16.7328C0 19.5638 2.32642 21.8611 5.19749 21.8611C8.06855 21.8611 10.395 19.5656 10.395 16.7328C10.395 13.9017 8.06855 11.6062 5.19749 11.6062ZM18.6999 11.6062C15.8287 11.6062 13.5023 13.9017 13.5023 16.7345C13.5023 19.5673 15.8287 21.8628 18.6999 21.8628C21.569 21.8628 23.8973 19.5673 23.8973 16.7345C23.8973 13.9017 21.5709 11.6062 18.6999 11.6062Z" fill="#FF584A"/>
</g>
<defs>
<clipPath id="clip0_299_288">
<rect width="24" height="22" fill="white"/>
</clipPath>
</defs>
</svg>
