<svg width="24" height="24" viewBox="0 0 24 24" fill="none" xmlns="http://www.w3.org/2000/svg">
<g clip-path="url(#clip0_356_458)">
<path d="M1.63636 21.0004H5.45455V11.7276L0 7.63672V19.364C0 20.2694 0.733636 21.0004 1.63636 21.0004Z" fill="#4285F4"/>
<path d="M18.5454 21.0004H22.3636C23.269 21.0004 24 20.2667 24 19.364V7.63672L18.5454 11.7276" fill="#34A853"/>
<path d="M18.5454 4.63612V11.727L24 7.63612V5.4543C24 3.43067 21.69 2.27703 20.0727 3.49067" fill="#FBBC04"/>
<path d="M5.45459 11.7276V4.63672L12 9.54581L18.5455 4.63672V11.7276L12 16.6367" fill="#EA4335"/>
<path d="M0 5.4543V7.63612L5.45455 11.727V4.63612L3.92727 3.49067C2.30727 2.27703 0 3.43067 0 5.4543Z" fill="#C5221F"/>
</g>
<defs>
<clipPath id="clip0_356_458">
<rect width="24" height="18" fill="white" transform="translate(0 3)"/>
</clipPath>
</defs>
</svg>
