<svg width="18" height="18" viewBox="0 0 18 18" fill="none" xmlns="http://www.w3.org/2000/svg">
<g clip-path="url(#clip0_319_272)">
<path d="M1.22727 16H4.09091V9.30303L0 6.34849V14.8182C0 15.4721 0.550227 16 1.22727 16Z" fill="#4285F4"/>
<path d="M13.9091 16H16.7727C17.4518 16 18 15.4702 18 14.8182V6.34849L13.9091 9.30303" fill="#34A853"/>
<path d="M13.9091 4.18182V9.30303L18 6.34849V4.77273C18 3.31122 16.2675 2.47803 15.0545 3.35455" fill="#FBBC04"/>
<path d="M4.09091 9.30303V4.18182L9 7.72727L13.9091 4.18182V9.30303L9 12.8485" fill="#EA4335"/>
<path d="M0 4.77273V6.34849L4.09091 9.30303V4.18182L2.94546 3.35455C1.73045 2.47803 0 3.31122 0 4.77273Z" fill="#C5221F"/>
</g>
<defs>
<clipPath id="clip0_319_272">
<rect width="18" height="13" fill="white" transform="translate(0 3)"/>
</clipPath>
</defs>
</svg>
