<svg width="18" height="18" viewBox="0 0 18 18" fill="none" xmlns="http://www.w3.org/2000/svg">
<g clip-path="url(#clip0_319_251)">
<path d="M13.7369 4.26312L9.47376 3.78945L4.26321 4.26312L3.78945 9L4.26312 13.7369L9 14.329L13.7369 13.7369L14.2106 8.88165L13.7369 4.26312Z" fill="white"/>
<path d="M6.20649 11.6123C5.85243 11.3731 5.60727 11.0238 5.47344 10.562L6.29532 10.2233C6.36993 10.5075 6.50016 10.7277 6.6861 10.8841C6.87087 11.0404 7.09587 11.1173 7.35876 11.1173C7.62759 11.1173 7.85853 11.0356 8.05149 10.8722C8.24445 10.7087 8.34165 10.5003 8.34165 10.2481C8.34165 9.99 8.23977 9.77913 8.0361 9.61578C7.83243 9.45243 7.57665 9.37062 7.2711 9.37062H6.79626V8.55711H7.2225C7.48539 8.55711 7.70688 8.4861 7.88688 8.34399C8.06688 8.20188 8.15688 8.00766 8.15688 7.76016C8.15688 7.53993 8.07633 7.36461 7.91532 7.23321C7.75431 7.10181 7.55055 7.03548 7.30305 7.03548C7.06149 7.03548 6.86961 7.09947 6.7275 7.22853C6.58539 7.35759 6.48234 7.51626 6.41727 7.70337L5.60376 7.3647C5.71149 7.05915 5.90931 6.78915 6.19938 6.55587C6.48954 6.32259 6.86016 6.20532 7.31016 6.20532C7.64289 6.20532 7.9425 6.26931 8.20782 6.39837C8.47305 6.52743 8.68149 6.70626 8.83188 6.9336C8.98227 7.16211 9.05688 7.41798 9.05688 7.70211C9.05688 7.99227 8.98704 8.23734 8.84727 8.43867C8.7075 8.64 8.53578 8.7939 8.33211 8.90172V8.95023C8.60094 9.06273 8.82 9.23445 8.99289 9.46539C9.16461 9.69633 9.25101 9.97227 9.25101 10.2944C9.25101 10.6165 9.16929 10.9042 9.00585 11.1565C8.84241 11.4088 8.61624 11.6077 8.32968 11.7521C8.04195 11.8966 7.71867 11.97 7.35984 11.97C6.94422 11.9712 6.56055 11.8516 6.20649 11.6123Z" fill="#1A73E8"/>
<path d="M11.25 7.53399L10.3523 8.18649L9.90117 7.50204L11.52 6.33438H12.1405V11.8421H11.25V7.53399Z" fill="#1A73E8"/>
<path d="M13.7369 18L18 13.7369L15.8684 12.7895L13.7369 13.7369L12.7895 15.8684L13.7369 18Z" fill="#EA4335"/>
<path d="M3.31578 15.8684L4.26312 18H13.7368V13.7369H4.26312L3.31578 15.8684Z" fill="#34A853"/>
<path d="M1.42101 0C0.63594 0 0 0.63594 0 1.42101V13.7368L2.13156 14.6841L4.26312 13.7368V4.26312H13.7368L14.6841 2.13156L13.7369 0H1.42101Z" fill="#4285F4"/>
<path d="M0 13.7369V16.579C0 17.3642 0.63594 18 1.42101 18H4.26312V13.7369H0Z" fill="#188038"/>
<path d="M13.7369 4.26312V13.7368H18V4.26312L15.8684 3.31578L13.7369 4.26312Z" fill="#FBBC04"/>
<path d="M18 4.26312V1.42101C18 0.63585 17.3641 0 16.579 0H13.7369V4.26312H18Z" fill="#1967D2"/>
</g>
<defs>
<clipPath id="clip0_319_251">
<rect width="18" height="18" fill="white"/>
</clipPath>
</defs>
</svg>
