<svg width="24" height="24" viewBox="0 0 24 24" fill="none" xmlns="http://www.w3.org/2000/svg">
<g clip-path="url(#clip0_299_247)">
<path d="M18.3159 5.68429L12.6317 5.05273L5.68429 5.68429L5.05261 12.0001L5.68417 18.316L12 19.1055L18.3159 18.316L18.9474 11.8423L18.3159 5.68429Z" fill="white"/>
<path d="M8.27537 15.4828C7.80329 15.1638 7.47641 14.6981 7.29797 14.0823L8.39381 13.6307C8.49329 14.0097 8.66693 14.3033 8.91485 14.5118C9.16121 14.7202 9.46121 14.8228 9.81173 14.8228C10.1702 14.8228 10.4781 14.7138 10.7354 14.4959C10.9927 14.278 11.1223 14.0001 11.1223 13.6638C11.1223 13.3197 10.9864 13.0385 10.7149 12.8207C10.4433 12.6029 10.1023 12.4938 9.69485 12.4938H9.06173V11.4092H9.63005C9.98057 11.4092 10.2759 11.3145 10.5159 11.125C10.7559 10.9355 10.8759 10.6766 10.8759 10.3466C10.8759 10.0529 10.7685 9.81916 10.5538 9.64396C10.3391 9.46876 10.0675 9.38032 9.73745 9.38032C9.41537 9.38032 9.15953 9.46564 8.97005 9.63772C8.78057 9.8098 8.64317 10.0214 8.55641 10.2708L7.47173 9.81928C7.61537 9.41188 7.87913 9.05188 8.26589 8.74084C8.65277 8.4298 9.14693 8.27344 9.74693 8.27344C10.1906 8.27344 10.5901 8.35876 10.9438 8.53084C11.2975 8.70292 11.5754 8.94136 11.7759 9.24448C11.9764 9.54916 12.0759 9.89032 12.0759 10.2692C12.0759 10.656 11.9828 10.9828 11.7964 11.2512C11.6101 11.5197 11.3811 11.7249 11.1095 11.8686V11.9333C11.468 12.0833 11.7601 12.3123 11.9906 12.6202C12.2195 12.9281 12.3347 13.296 12.3347 13.7255C12.3347 14.155 12.2258 14.5386 12.0079 14.875C11.7899 15.2114 11.4884 15.4766 11.1063 15.6692C10.7227 15.8618 10.2916 15.9597 9.81317 15.9597C9.25901 15.9612 8.74745 15.8018 8.27537 15.4828Z" fill="#1A73E8"/>
<path d="M15 10.0458L13.8031 10.9158L13.2015 10.0032L15.36 8.44629H16.1874V15.7899H15V10.0458Z" fill="#1A73E8"/>
<path d="M18.3159 24L24 18.3159L21.1579 17.0527L18.3159 18.3159L17.0527 21.1579L18.3159 24Z" fill="#EA4335"/>
<path d="M4.42102 21.1575L5.68414 23.9996H18.3157V18.3154H5.68414L4.42102 21.1575Z" fill="#34A853"/>
<path d="M1.89468 0C0.84792 0 0 0.84792 0 1.89468V18.3157L2.84208 19.5788L5.68416 18.3157V5.68416H18.3157L19.5788 2.84208L18.3158 0H1.89468Z" fill="#4285F4"/>
<path d="M0 18.3154V22.1049C0 23.1518 0.84792 23.9996 1.89468 23.9996H5.68416V18.3154H0Z" fill="#188038"/>
<path d="M18.3158 5.68402V18.3156H24V5.68402L21.1579 4.4209L18.3158 5.68402Z" fill="#FBBC04"/>
<path d="M24 5.68416V1.89468C24 0.8478 23.152 0 22.1053 0H18.3158V5.68416H24Z" fill="#1967D2"/>
</g>
<defs>
<clipPath id="clip0_299_247">
<rect width="24" height="24" fill="white"/>
</clipPath>
</defs>
</svg>
