<svg width="18" height="18" viewBox="0 0 18 18" fill="none" xmlns="http://www.w3.org/2000/svg">
<g clip-path="url(#clip0_319_263)">
<path d="M3.34425 3.156C3.90375 3.6105 4.11375 3.576 5.16525 3.5055L15.0765 2.91075C15.2865 2.91075 15.1117 2.70075 15.042 2.66625L13.395 1.476C13.08 1.2315 12.6592 0.950997 11.8537 1.02075L2.2575 1.72125C1.908 1.75575 1.8375 1.93125 1.977 2.07075L3.34425 3.156ZM3.939 5.466V15.894C3.939 16.4542 4.21875 16.6642 4.8495 16.629L15.7418 15.999C16.3725 15.9645 16.443 15.579 16.443 15.1237V4.7655C16.443 4.311 16.2683 4.06575 15.882 4.10025L4.49925 4.7655C4.07925 4.80075 3.939 5.0115 3.939 5.466ZM14.6918 6.02475C14.7615 6.33975 14.6918 6.65475 14.3768 6.69075L13.8517 6.79575V14.4937C13.3957 14.739 12.9757 14.8792 12.6255 14.8792C12.0645 14.8792 11.9242 14.7037 11.5042 14.1795L8.0715 8.79V14.004L9.1575 14.25C9.1575 14.25 9.1575 14.88 8.2815 14.88L5.865 15.0195C5.79525 14.88 5.865 14.5297 6.11025 14.46L6.74025 14.2852V7.3905L5.8665 7.32C5.796 7.005 5.9715 6.5505 6.46125 6.51525L9.05325 6.3405L12.6262 11.7997V6.96975L11.715 6.8655C11.6452 6.48 11.925 6.20025 12.2752 6.16575L14.6918 6.02475ZM1.452 0.776247L11.4345 0.0412471C12.66 -0.0637529 12.9757 0.00599706 13.746 0.566247L16.9327 2.80575C17.4577 3.1905 17.6332 3.2955 17.6332 3.7155V15.999C17.6332 16.7685 17.3535 17.2245 16.3732 17.2935L4.77975 17.994C4.04475 18.0292 3.69375 17.9242 3.30825 17.4337L0.961499 14.3887C0.541499 13.8285 0.366749 13.4092 0.366749 12.9187V2.00025C0.366749 1.371 0.647249 0.845247 1.452 0.776247Z" fill="black"/>
</g>
<defs>
<clipPath id="clip0_319_263">
<rect width="18" height="18" fill="white"/>
</clipPath>
</defs>
</svg>
