<svg width="24" height="24" viewBox="0 0 24 24" fill="none" xmlns="http://www.w3.org/2000/svg">
<g clip-path="url(#clip0_299_282)">
<path d="M4.45901 4.20775C5.20501 4.81375 5.48501 4.76775 6.88701 4.67375L20.102 3.88075C20.382 3.88075 20.149 3.60075 20.056 3.55475L17.86 1.96775C17.44 1.64175 16.879 1.26775 15.805 1.36075L3.01001 2.29475C2.54401 2.34075 2.45001 2.57475 2.63601 2.76075L4.45901 4.20775ZM5.25201 7.28775V21.1918C5.25201 21.9388 5.62501 22.2188 6.46601 22.1718L20.989 21.3318C21.83 21.2858 21.924 20.7718 21.924 20.1648V6.35375C21.924 5.74775 21.691 5.42075 21.176 5.46675L5.99901 6.35375C5.43901 6.40075 5.25201 6.68175 5.25201 7.28775ZM19.589 8.03275C19.682 8.45275 19.589 8.87275 19.169 8.92075L18.469 9.06075V19.3248C17.861 19.6518 17.301 19.8388 16.834 19.8388C16.086 19.8388 15.899 19.6048 15.339 18.9058L10.762 11.7198V18.6718L12.21 18.9998C12.21 18.9998 12.21 19.8398 11.042 19.8398L7.82001 20.0258C7.72702 19.8398 7.82001 19.3728 8.14702 19.2798L8.98701 19.0468V9.85375L7.82201 9.75975C7.72801 9.33975 7.96201 8.73375 8.61501 8.68675L12.071 8.45375L16.835 15.7328V9.29275L15.62 9.15375C15.527 8.63975 15.9 8.26675 16.367 8.22075L19.589 8.03275ZM1.93601 1.03475L15.246 0.0547519C16.88 -0.0852481 17.301 0.00775194 18.328 0.754752L22.577 3.74075C23.277 4.25375 23.511 4.39375 23.511 4.95375V21.3318C23.511 22.3578 23.138 22.9658 21.831 23.0578L6.37301 23.9918C5.39301 24.0388 4.92501 23.8988 4.41101 23.2448L1.28201 19.1848C0.722014 18.4378 0.489014 17.8788 0.489014 17.2248V2.66675C0.489014 1.82775 0.863014 1.12675 1.93601 1.03475Z" fill="black"/>
</g>
<defs>
<clipPath id="clip0_299_282">
<rect width="24" height="24" fill="white"/>
</clipPath>
</defs>
</svg>
