<svg width="24" height="24" viewBox="0 0 24 24" fill="none" xmlns="http://www.w3.org/2000/svg">
<path d="M5.05961 15.1717C5.05961 16.5666 3.93312 17.6939 2.53933 17.6939C1.14553 17.6939 0.019043 16.5666 0.019043 15.1717C0.019043 13.7768 1.14553 12.6494 2.53933 12.6494H5.05961V15.1717ZM6.31975 15.1717C6.31975 13.7768 7.44624 12.6494 8.84003 12.6494C10.2338 12.6494 11.3603 13.7768 11.3603 15.1717V21.4773C11.3603 22.8722 10.2338 23.9996 8.84003 23.9996C7.44624 23.9996 6.31975 22.8722 6.31975 21.4773V15.1717Z" fill="#E01E5A"/>
<path d="M8.84008 5.04453C7.44629 5.04453 6.3198 3.91716 6.3198 2.52227C6.3198 1.12738 7.44629 0 8.84008 0C10.2339 0 11.3604 1.12738 11.3604 2.52227V5.04453H8.84008ZM8.84008 6.32478C10.2339 6.32478 11.3604 7.45215 11.3604 8.84704C11.3604 10.2419 10.2339 11.3693 8.84008 11.3693H2.52028C1.12649 11.3693 0 10.2419 0 8.84704C0 7.45215 1.12649 6.32478 2.52028 6.32478H8.84008Z" fill="#36C5F0"/>
<path d="M18.9402 8.84704C18.9402 7.45215 20.0667 6.32478 21.4605 6.32478C22.8543 6.32478 23.9808 7.45215 23.9808 8.84704C23.9808 10.2419 22.8543 11.3693 21.4605 11.3693H18.9402V8.84704ZM17.6801 8.84704C17.6801 10.2419 16.5536 11.3693 15.1598 11.3693C13.766 11.3693 12.6395 10.2419 12.6395 8.84704V2.52227C12.6395 1.12738 13.766 0 15.1598 0C16.5536 0 17.6801 1.12738 17.6801 2.52227V8.84704Z" fill="#2EB67D"/>
<path d="M15.1598 18.9551C16.5536 18.9551 17.6801 20.0825 17.6801 21.4773C17.6801 22.8722 16.5536 23.9996 15.1598 23.9996C13.766 23.9996 12.6395 22.8722 12.6395 21.4773V18.9551H15.1598ZM15.1598 17.6939C13.766 17.6939 12.6395 16.5666 12.6395 15.1717C12.6395 13.7768 13.766 12.6494 15.1598 12.6494H21.4796C22.8734 12.6494 23.9999 13.7768 23.9999 15.1717C23.9999 16.5666 22.8734 17.6939 21.4796 17.6939H15.1598Z" fill="#ECB22E"/>
</svg>
